<?xml version="1.0" standalone="no"?>
<!DOCTYPE svg PUBLIC "-//W3C//DTD SVG 20010904//EN"
 "http://www.w3.org/TR/2001/REC-SVG-20010904/DTD/svg10.dtd">
<svg version="1.0" xmlns="http://www.w3.org/2000/svg"
 width="348.000000pt" height="400.000000pt" viewBox="0 0 348.000000 400.000000"
 preserveAspectRatio="xMidYMid meet">

<g transform="translate(0.000000,400.000000) scale(0.100000,-0.100000)"
fill="#000000" stroke="none">
<path d="M865 3501 l-860 -498 -3 -1001 -2 -1001 97 -57 c53 -32 101 -57 107
-57 6 0 476 269 1045 597 569 328 1036 594 1038 592 7 -7 23 -1290 15 -1297
-4 -4 -218 -128 -475 -274 -258 -147 -467 -268 -465 -270 2 -1 89 -55 195
-119 l191 -116 864 499 863 498 3 228 c2 197 0 227 -12 222 -14 -5 -685 -397
-743 -433 l-23 -14 0 662 1 663 387 226 387 226 0 112 0 113 -108 58 -108 59
-1432 -829 -1432 -830 -3 202 c-1 111 -1 207 2 213 2 6 562 337 1245 735 682
399 1241 727 1241 730 -1 9 -380 215 -391 212 -7 -2 -1892 -1091 -2091 -1209
-5 -2 -8 92 -8 209 l1 213 854 505 c470 278 854 507 854 510 1 5 -353 213
-367 217 -4 1 -394 -223 -867 -496z"/>
</g>
</svg>
