<?xml version="1.0" standalone="no"?>
<!DOCTYPE svg PUBLIC "-//W3C//DTD SVG 20010904//EN"
 "http://www.w3.org/TR/2001/REC-SVG-20010904/DTD/svg10.dtd">
<svg version="1.0" xmlns="http://www.w3.org/2000/svg"
 width="348.000000pt" height="400.000000pt" viewBox="0 0 348.000000 400.000000"
 preserveAspectRatio="xMidYMid meet">

<g transform="translate(0.000000,400.000000) scale(0.100000,-0.100000)"
fill="#000000" stroke="none">
<path d="M0 3499 l0 -501 23 14 c12 8 395 230 852 493 457 263 834 482 839
487 6 4 -378 8 -852 8 l-862 0 0 -501z"/>
<path d="M1775 3975 c22 -14 104 -62 182 -108 79 -45 143 -84 143 -87 0 -3
-385 -232 -855 -510 l-854 -505 -1 -213 c0 -117 3 -211 8 -209 199 118 2084
1207 2091 1209 11 3 390 -203 391 -212 0 -3 -559 -331 -1241 -730 -683 -398
-1243 -729 -1245 -735 -3 -6 -3 -102 -2 -213 l3 -202 1434 830 c924 536 1437
828 1445 822 6 -5 55 -32 109 -61 l97 -52 0 501 0 500 -872 0 -873 -1 40 -24z"/>
<path d="M3088 2552 l-387 -227 -1 -662 0 -662 123 72 c68 40 243 142 390 227
l266 155 1 663 c0 364 -1 662 -2 661 -2 0 -177 -102 -390 -227z"/>
<path d="M1265 1495 c-556 -321 -1022 -591 -1036 -599 -24 -14 -29 -12 -125
43 l-99 59 -3 -496 c-1 -272 -1 -497 1 -499 2 -2 394 -2 871 -1 l867 3 -190
115 c-104 63 -187 117 -185 120 3 3 215 125 472 271 l467 266 -3 399 c-3 504
-12 904 -21 903 -3 -1 -460 -264 -1016 -584z"/>
<path d="M2616 501 l-859 -496 858 -3 c472 -1 860 -1 862 1 2 2 2 227 1 499
l-3 495 -859 -496z"/>
</g>
</svg>
